<?xml version="1.0" encoding="utf-8"?>
<!-- Generator: Adobe Illustrator 22.0.1, SVG Export Plug-In . SVG Version: 6.00 Build 0)  -->
<svg version="1.1" id="artwork" xmlns="http://www.w3.org/2000/svg" xmlns:xlink="http://www.w3.org/1999/xlink" x="0px" y="0px"
	 viewBox="0 0 306.144 322.747" enable-background="new 0 0 306.144 322.747" xml:space="preserve">
<g>
	<rect fill="none" width="306.144" height="322.747"/>
	<g>
		<g>
			<g>
				<g>
					<g>
						<g>
							<path fill="#FFFFFF" d="M253.373,158.216c-0.867-0.943-0.919-1.812-0.031-2.845c1.643-1.911,2.99-4.496,4.136-7.202
								c1.646-3.895,3.417-10.813,3.417-16.806c0-23.375-17.887-41.003-41.607-41.003c-1.202,0-3.387,0.235-4.696,0.482
								c-1.717,0.323-2.518,0.101-2.2-2.169c0.053-0.384,0.452-3.222,0.452-6.604c0-9.215-2.207-16.513-6.748-22.319
								c-9.287-11.869-21.135-14.361-29.442-14.361c-8.77,0-15.192,2.481-18.386,3.994c-3.193,1.513-4.682,1.95-5.192,1.95
								c-0.51,0-1.998-0.437-5.192-1.95c-3.193-1.513-9.615-3.994-18.386-3.994c-8.307,0-20.155,2.492-29.442,14.361
								c-4.54,5.806-6.748,13.105-6.748,22.319c0,3.383,0.398,6.221,0.452,6.604c0.318,2.269-0.483,2.492-2.2,2.169
								c-1.309-0.247-3.494-0.482-4.696-0.482c-23.722,0-41.607,17.628-41.607,41.003c0,5.993,1.771,12.911,3.417,16.806
								c1.146,2.706,2.493,5.291,4.136,7.202c0.888,1.033,0.837,1.902-0.031,2.845c-1.389,1.51-2.726,3.457-3.984,6.089
								c-2.176,4.551-3.536,8.954-3.536,16.823c0,10.086,4.177,20.318,11.439,28.074c7.829,8.359,18.343,12.965,29.61,12.965h0.004
								c0.881,0,2.928-0.077,3.956-0.18c1.928-0.189,2.284,0.148,2.339,1.966c0.299,9.768,6.131,20.122,18.965,22.396
								c5.874,1.042,10.584,0.086,13.095-0.619c2.286-0.637,2.286,0.05,2.443,1.652c0.194,2.008,0.745,4.145,1.63,6.416
								c3.692,9.469,17.264,23.56,24.333,23.56c7.066,0,20.649-14.091,24.341-23.56c0.885-2.271,1.436-4.409,1.63-6.416
								c0.157-1.602,0.157-2.289,2.443-1.652c2.511,0.705,7.22,1.661,13.095,0.619c12.834-2.274,18.666-12.628,18.965-22.396
								c0.055-1.818,0.411-2.155,2.339-1.966c1.027,0.103,3.075,0.18,3.956,0.18h0.004c11.266,0,21.781-4.606,29.609-12.965
								c7.262-7.756,11.439-17.988,11.439-28.074c0-7.869-1.36-12.272-3.536-16.823
								C256.098,161.673,254.761,159.727,253.373,158.216z"/>
						</g>
					</g>
				</g>
				<g>
					<path fill="#294885" d="M173.752,151.785c-0.173-0.693-0.592-2.786-0.41-3.342c0.178-0.557,0.614-1.674,0.931-2.604
						c1.646-4.779,0.891-9.786,0.363-10.923c-0.102-0.22-0.324-0.251-0.476-0.274c-2.332-0.351-4.246,1.148-6.57,3.94
						c-0.93,1.116-1.976,1.966-2.239,0.436c-0.176-1.011,0.615-3.085-0.33-2.991c-2.188,0.23-3.612,1.484-4.851,3.111
						c-0.954,1.258-1.026,1.918-2.135,1.951c-2.214,0.1-3.245,0.191-4.952,0.599c-1.712,0.406-3.159,1.045-4.185,1.679
						c-1.284,0.801-2.247,2.005-5.266,2.029c-4.834,0.041-10.967,0.152-13.348,0.606c-2.447,0.465-2.794,2.02-1.495,4.19
						c1.523,2.541,1.975,8.002,5.052,8.78c0.816,1.735,1.372,3.056,2.166,2.979c0.273-0.057,0.551-0.899,0.751-1.676
						c0.426-1.703,2.077-1.779,3.166-1.834c2.75-0.14,4.882,0.016,6.74,1.062c1.272,0.717,1.894,1.992,1.654,2.485
						c-0.433,0.885-1.343-0.324-6.062,0.632c-2.667,0.539-4.3,1.969-7.736,1.969c-5.12,0-7.629-3.467-8.529-6.562
						c-0.454-1.554-0.783-3.001-2.611-1.291c-2.349,2.196-2.523,6.375-0.094,8.927c1.611,1.692,3.865,2.573,6.581,2.824
						c0.831,0.065,2.494,0.106,3.85,0.043c0,0-0.387,1.062,0.197,2c0.586,0.94,2.338,1.669,5.131,0.838
						c3.996-1.19,7.43-2.301,10.18-0.246c0.5,0.373,1.118,1.061,1.118,1.509c0,0.816-2.998,3.157-11.406,5.421
						c-10.339,2.784-12.764,9.706-11.717,13.489c0.094,0.346,0.317,0.683,0.579,0.698c0.287,0.015,1.87-0.913,2.775-1.075
						c1.76-0.314,1.018,0.964,0.794,2.573c-0.798,5.739,7.359,12.978,14.563,17.965c3.989,2.761,6.135,3.703,7.141,3.703
						c1.03,0,3.162-0.762,7.141-3.703c11.229-8.298,18.675-19.919,17.468-26.11c-0.685-3.513-2.514-5.652-1.641-6.217
						c1.012-0.65,3.181,1.035,3.659,0.738c1.127-0.701,1.641-7.203-0.437-14.001C177.29,159.652,175.075,157.072,173.752,151.785z
						 M152.645,149.634c-0.95,0.142-2.127-0.365-1.865-0.711c0.113-0.149,0.408-0.54,0.182-1.011
						c-0.309-0.642-1.299-0.652-1.938-0.247c0.512-1.16,2.166-1.937,3.573-1.937c1.984,0,2.442,1.13,2.322,1.995
						C154.777,148.759,153.875,149.45,152.645,149.634z"/>
					<g>
						<path fill="#3979B5" d="M59.801,148.265c1.756-13.012,9.097-22.679,17.249-27.312c12.996-7.384,25.871-4.587,34.9-2.55
							c1.339,0.303,2.427,0.11,2.845-0.705c0.34-0.672,0.1-1.436-0.959-2.55c-4.246-4.471-14.013-14.187-15.236-15.208
							c-2.973-2.479-7.885-3.95-11.727-3.95c-21.957,0-35.849,16.698-35.849,35.286c0,4.865,1.361,11.153,2.855,14.687
							c1.388,3.279,2.926,6.194,4.145,6.194C59.432,152.158,59.543,150.173,59.801,148.265z"/>
						<path fill="#3979B5" d="M186.002,112.418c-0.616-0.468-0.755-1.395-0.615-2.802c0.93-9.333-0.016-18.513-1.882-22.821
							c-2.399-5.542-8.139-13.63-12.627-18.329c-5.824-6.1-7.918-7.779-10.6-9.813c-0.672-0.509-2.12-1.329-2.12-2.007
							c0-0.75,1.116-1.527,2.466-2.152c2.517-1.168,6.208-2.757,12.948-3.337c8.016-0.689,19.439,1.04,28.065,12.063
							c4.868,6.222,5.549,13.749,5.549,18.842c0,6.061-0.971,11.515-3.852,14.662c-4.268,4.66-13.409,13.758-14.611,14.839
							C188.14,112.087,186.81,113.028,186.002,112.418z"/>
						<path fill="#3979B5" d="M217.548,216.445c22.006,1.389,37.572-17.146,37.572-35.323c0-6.911-1.004-10.553-2.84-14.393
							c-1.566-3.276-3.364-5.497-4.439-5.492c-1.057,0.003-1.376,1.547-1.548,2.456c-4.262,22.276-19.977,35.206-30.674,35.381
							c-3.136,0.052-6.953-0.669-7.293-2.193c-0.487-2.183,3.264-6.84,3.264-15.578c0-3.538-1.555-9.951-11.349-10.337
							c-8.632-0.342-12.823,7.736-12.823,14.882C187.418,200.681,198.335,215.23,217.548,216.445z"/>
					</g>
					<g>
						<path fill="#255C9E" d="M88.598,216.445c-22.006,1.389-37.572-17.146-37.572-35.323c0-6.911,1.004-10.553,2.84-14.393
							c1.566-3.276,3.364-5.497,4.439-5.492c1.057,0.003,1.376,1.547,1.548,2.456c4.262,22.276,19.977,35.206,30.674,35.381
							c3.137,0.052,6.953-0.669,7.293-2.193c0.487-2.183-3.264-6.84-3.264-15.578c0-3.538,1.555-9.951,11.349-10.337
							c8.632-0.342,12.823,7.736,12.823,14.882C118.727,200.681,107.811,215.23,88.598,216.445z"/>
						<path fill="#255C9E" d="M120.143,112.418c0.616-0.468,0.755-1.395,0.615-2.802c-0.93-9.333,0.016-18.513,1.882-22.821
							c2.399-5.542,8.14-13.63,12.627-18.329c5.824-6.1,7.918-7.779,10.6-9.813c0.672-0.509,2.12-1.329,2.12-2.007
							c0-0.75-1.116-1.527-2.466-2.152c-2.517-1.168-6.208-2.757-12.948-3.337c-8.016-0.689-19.439,1.04-28.065,12.063
							c-4.868,6.222-5.549,13.749-5.549,18.842c0,6.061,0.97,11.515,3.852,14.662c4.268,4.66,13.409,13.758,14.611,14.839
							C118.005,112.087,119.336,113.028,120.143,112.418z"/>
						<path fill="#255C9E" d="M246.344,148.265c-1.756-13.012-9.097-22.679-17.249-27.312c-12.995-7.384-25.871-4.587-34.9-2.55
							c-1.339,0.303-2.427,0.11-2.845-0.705c-0.34-0.672-0.1-1.436,0.959-2.55c4.245-4.471,14.013-14.187,15.236-15.208
							c2.973-2.479,7.885-3.95,11.727-3.95c21.957,0,35.849,16.698,35.849,35.286c0,4.865-1.361,11.153-2.855,14.687
							c-1.388,3.279-2.925,6.194-4.145,6.194C246.713,152.158,246.603,150.173,246.344,148.265z"/>
					</g>
					<g>
						<path fill="#F9B200" d="M95.581,121.224c9.76,0,22.029,3.365,26.289,6.656c1.352,1.045,1.796,2.557-0.124,4.476
							c-2.51,2.509-7.524,7.523-9.537,9.537c-1.799,1.8-2.506,2.859-2.506,6.575c0,5.62,0,12.229,0,14.634
							c0,1.763-0.71,2.518-3.318,2.826c-0.666,0.078-2.045,0.158-3.075,0.254c-3.538,0.329-8.133,1.628-11.354,6.678
							c-4.162,6.524-1.611,14.973-0.478,18.247c0.824,2.377,0.682,3.796-2.885,3.082c-9.906-1.984-25.182-20.18-24.288-40.363
							C65.233,132.889,79.031,121.224,95.581,121.224z"/>
						<path fill="#F9B200" d="M210.564,121.224c-9.76,0-22.029,3.365-26.289,6.656c-1.352,1.045-1.796,2.557,0.124,4.476
							c2.51,2.509,7.524,7.523,9.537,9.537c1.799,1.8,2.506,2.859,2.506,6.575c0,5.62,0,12.229,0,14.634
							c0,1.763,0.71,2.518,3.318,2.826c0.666,0.078,2.045,0.158,3.075,0.254c3.538,0.329,8.133,1.628,11.354,6.678
							c4.162,6.524,1.611,14.973,0.478,18.247c-0.824,2.377-0.683,3.796,2.885,3.082c9.906-1.984,25.183-20.18,24.288-40.363
							C240.913,132.889,227.114,121.224,210.564,121.224z"/>
						<path fill="#F9B200" d="M170.224,223.241c4.937-3.72,7.603-6.218,11.726-10.438c1.902-1.946,4.084-2.153,6.369,0.049
							c3.176,3.067,7.084,5.573,12.799,6.045c2.292,0.19,3.516-0.543,5.133,0.245c0.824,0.399,1.609,1.506,1.666,3.401
							c0.229,7.55-3.38,16.295-14.315,18.247c-7.087,1.266-14.209-0.881-17.728-4.181c-2.409-2.255-5.066-4.768-6.61-6.853
							C167.651,227.582,167.725,225.121,170.224,223.241z"/>
						<path fill="#F9B200" d="M135.921,223.241c-4.937-3.72-7.603-6.218-11.726-10.438c-1.901-1.946-4.084-2.153-6.369,0.049
							c-3.176,3.067-7.084,5.573-12.799,6.045c-2.292,0.19-3.515-0.543-5.133,0.245c-0.824,0.399-1.609,1.506-1.666,3.401
							c-0.229,7.55,3.38,16.295,14.315,18.247c7.087,1.266,14.209-0.881,17.728-4.181c2.409-2.255,5.066-4.768,6.61-6.853
							C138.495,227.582,138.421,225.121,135.921,223.241z"/>
					</g>
					<g>
						<path fill="#F49E00" d="M126.421,91.467c0.942-4.697,6.84-13.584,12.586-19.618c5.853-6.146,10.956-10.914,14.066-10.914
							c3.105,0,8.209,4.768,14.064,10.914c5.747,6.034,11.646,14.921,12.585,19.618c0.943,4.697,2.215,14.511-1.185,28.716
							c-0.962,4.022-3.188,4.405-5.703,4.405c-1.12,0-38.405,0-39.522,0c-2.516,0-4.741-0.383-5.706-4.405
							C124.206,105.978,125.479,96.164,126.421,91.467z"/>
						<path fill="#F49E00" d="M153.073,231.913c2.818,0,5.023-1.718,6.93-1.966c1.613-0.21,2.653,0.29,4.13,1.77
							c2.141,2.145,5.225,5.501,7.274,8.015c1.478,1.813,3.483,4.839,0.73,11.892c-3.379,8.664-15.51,20.086-19.065,20.086
							s-15.686-11.422-19.065-20.086c-2.752-7.053-0.748-10.079,0.73-11.892c2.049-2.514,5.133-5.87,7.274-8.015
							c1.477-1.48,2.517-1.98,4.13-1.77C148.049,230.195,150.255,231.913,153.073,231.913z"/>
					</g>
				</g>
			</g>
		</g>
	</g>
</g>
</svg>
